<?xml version="1.0" standalone="no"?>
<!DOCTYPE svg PUBLIC "-//W3C//DTD SVG 20010904//EN"
 "http://www.w3.org/TR/2001/REC-SVG-20010904/DTD/svg10.dtd">
<svg version="1.0" xmlns="http://www.w3.org/2000/svg"
 width="200.000000pt" height="200.000000pt" viewBox="0 0 200.000000 200.000000"
 preserveAspectRatio="xMidYMid meet">

<g transform="translate(0.000000,200.000000) scale(0.100000,-0.100000)"
fill="#000000" stroke="none">
<path d="M955 1746 c-68 -30 -146 -148 -181 -274 -13 -48 -21 -61 -33 -57 -9
2 -59 12 -111 21 -59 10 -98 22 -106 32 -18 25 -72 19 -97 -10 -12 -15 -37
-34 -55 -43 -42 -21 -66 -74 -57 -124 11 -59 64 -148 133 -222 l65 -70 -49
-50 c-30 -30 -57 -49 -71 -49 -38 0 -66 -36 -59 -78 3 -21 -1 -55 -10 -84 -28
-84 3 -149 85 -177 49 -16 163 -14 259 6 71 14 85 14 92 2 6 -8 4 -19 -4 -29
-34 -40 -23 -83 29 -104 19 -8 35 -21 35 -29 0 -7 18 -39 41 -70 41 -58 98
-97 140 -97 35 0 103 45 132 87 32 47 80 152 96 214 l13 45 81 -18 c45 -9 104
-18 130 -18 27 0 59 -7 72 -16 36 -23 64 -12 115 48 41 48 45 57 44 103 0 67
-45 150 -131 244 l-66 72 44 45 c26 27 52 44 66 44 38 0 66 36 59 76 -5 22 -1
44 10 66 20 38 22 114 5 146 -7 13 -34 33 -59 45 -59 27 -193 28 -296 3 -74
-18 -88 -15 -68 12 34 47 26 87 -21 107 -22 9 -39 27 -54 59 -29 59 -90 126
-130 143 -39 16 -50 16 -88 -1z m93 -60 c56 -29 134 -138 113 -159 -25 -25 0
-97 34 -97 24 0 25 -29 2 -36 -12 -3 -61 -22 -109 -41 l-88 -35 -87 35 c-49
19 -98 38 -111 42 -26 8 -26 11 19 120 32 78 76 138 123 166 37 23 67 24 104
5z m-323 -296 c19 -7 25 -15 21 -26 -4 -9 -12 -59 -18 -112 l-12 -94 -75 -57
c-40 -31 -83 -63 -94 -71 -18 -13 -23 -10 -68 40 -103 118 -139 241 -84 295
26 27 40 31 50 15 11 -18 61 -11 83 13 21 22 26 23 96 15 40 -4 86 -12 101
-18z m842 1 c48 -22 63 -45 63 -98 0 -61 -10 -83 -35 -83 -27 0 -69 -47 -60
-67 3 -7 7 -19 10 -25 3 -7 -12 -33 -34 -58 -35 -41 -40 -43 -58 -30 -11 8
-54 40 -95 72 l-75 56 -13 104 c-8 56 -15 107 -15 113 -1 34 243 47 312 16z
m-678 -52 c45 -17 81 -33 81 -35 0 -2 -24 -15 -52 -30 -29 -14 -79 -42 -111
-61 -32 -19 -60 -33 -63 -30 -3 3 2 46 11 96 20 107 16 105 134 60z m341 24
c0 -5 7 -46 15 -92 8 -47 13 -87 10 -89 -2 -2 -30 12 -62 31 -32 19 -82 47
-111 62 -30 14 -52 28 -50 30 1 2 37 17 78 34 73 29 120 39 120 24z m-94 -141
c118 -68 119 -69 127 -113 4 -24 6 -91 4 -148 -5 -121 3 -111 -140 -193 -63
-36 -103 -52 -127 -52 -44 0 -239 110 -257 145 -13 25 -18 225 -7 267 8 29
226 160 270 162 6 0 64 -31 130 -68z m-426 -228 l0 -126 -42 33 c-24 18 -60
48 -80 66 l-37 32 46 38 c25 21 58 48 72 60 14 12 29 23 34 23 4 0 7 -57 7
-126z m660 71 c38 -30 71 -59 74 -63 4 -7 -130 -121 -152 -130 -4 -1 -7 54 -7
123 0 69 4 125 8 125 4 0 39 -25 77 -55z m-644 -309 c6 -44 14 -95 18 -112 7
-31 6 -32 -46 -45 -29 -8 -93 -14 -143 -14 -115 0 -168 24 -184 82 -14 49 2
113 28 113 30 0 54 35 47 70 -5 27 0 38 40 80 l45 48 92 -70 92 -70 11 -82z
m880 48 c28 -58 35 -133 15 -158 -8 -10 -22 -13 -41 -10 -34 7 -66 -9 -75 -37
-7 -20 -12 -21 -84 -16 -42 3 -98 11 -124 17 -47 12 -48 13 -41 44 4 17 12 67
18 112 l11 82 90 70 90 70 57 -60 c32 -33 69 -84 84 -114z m-702 -75 c37 -20
64 -39 59 -42 -14 -9 -173 -67 -182 -67 -6 0 -41 165 -41 194 0 4 21 -5 48
-20 26 -16 78 -45 116 -65z m340 -5 c-8 -49 -19 -93 -23 -97 -7 -7 -43 5 -166
52 l-29 12 94 51 c52 28 104 57 114 64 11 7 21 12 23 11 1 -2 -4 -44 -13 -93z
m-149 -83 c44 -18 90 -36 102 -41 l23 -10 -25 -67 c-52 -136 -114 -211 -184
-220 -51 -7 -94 20 -141 88 -30 45 -32 51 -20 79 10 25 10 34 -4 55 -9 14 -23
25 -31 25 -8 0 -19 9 -25 21 -10 18 -8 22 21 32 18 7 67 26 108 44 42 17 81
30 86 28 6 -2 46 -17 90 -34z"/>
<path d="M1079 1185 c45 -51 43 -105 -3 -151 -25 -25 -43 -34 -67 -34 -71 0
-134 -69 -122 -133 3 -15 19 -41 35 -57 26 -26 37 -30 84 -30 68 0 119 25 167
80 99 116 54 284 -92 346 l-33 14 31 -35z m-51 -296 c3 -28 -16 -43 -42 -33
-38 14 -22 68 18 62 14 -2 22 -12 24 -29z"/>
<path d="M971 1127 c-18 -23 -2 -49 28 -45 20 2 26 8 26 28 0 29 -34 40 -54
17z"/>
</g>
</svg>
